<?xml version="1.0" standalone="no"?><!DOCTYPE svg PUBLIC "-//W3C//DTD SVG 1.1//EN" "http://www.w3.org/Graphics/SVG/1.1/DTD/svg11.dtd"><svg t="1711268519904" class="icon" viewBox="0 0 1024 1024" version="1.1" xmlns="http://www.w3.org/2000/svg" p-id="2305" xmlns:xlink="http://www.w3.org/1999/xlink" width="1em" height="1em" style="rotate: 90deg;"><path d="M822.274296 721.451623V302.543785C822.274296 136.146081 686.128215 0 519.730511 0h-15.465614C337.867193 0 201.721112 136.146081 201.721112 302.543785v418.91243C201.721112 887.858511 337.867193 1024 504.269489 1024h15.465614c166.397704 0 302.543785-136.141489 302.539193-302.548377z" fill="#4E6070" p-id="2306"></path><path d="M512.002296 742.046422m-183.911318 0a183.911318 183.911318 0 1 0 367.822636 0 183.911318 183.911318 0 1 0-367.822636 0Z" fill="#FF6677" p-id="2307"></path><path d="M512.002296 290.425686m-183.906726 0a183.906726 183.906726 0 1 0 367.813452 0 183.906726 183.906726 0 1 0-367.813452 0Z" fill="#00CCC6" p-id="2308"></path></svg>
